<svg width="1150" height="1579" viewBox="0 0 1150 1579" fill="none" xmlns="http://www.w3.org/2000/svg">
<path d="M1000 575C1000 340.279 809.721 150 575 150C340.279 150 150 340.279 150 575V1003.57C150 1238.29 340.279 1428.57 575 1428.57C809.721 1428.57 1000 1238.29 1000 1003.57V575ZM1150 1003.57C1150 1321.14 892.564 1578.57 575 1578.57C257.436 1578.57 0 1321.14 0 1003.57V575C8.25103e-06 257.436 257.436 0 575 0C892.564 2.06276e-05 1150 257.436 1150 575V1003.57Z" fill="currentColor"/>
<path d="M500 789.286V503.571C500 462.15 533.579 428.571 575 428.571C616.421 428.571 650 462.15 650 503.571V789.286C650 830.707 616.421 864.286 575 864.286C533.579 864.286 500 830.707 500 789.286Z" fill="currentColor"/>
</svg>
