<svg width="864" height="864" viewBox="0 0 864 864" fill="none" xmlns="http://www.w3.org/2000/svg">
<g clip-path="url(#clip0_39_203)">
<path d="M393.82 209.181V195.673C393.82 174.64 410.871 157.589 431.904 157.589C452.936 157.589 469.987 174.64 469.987 195.673V209.181C469.987 230.214 452.936 247.265 431.904 247.265C410.871 247.265 393.82 230.214 393.82 209.181Z" fill="white"/>
<path d="M153.2 169.596C162.86 150.912 185.837 143.598 204.52 153.258C223.203 162.919 230.517 185.896 220.857 204.579C203.401 238.341 194.299 275.798 194.315 313.805V550.135C194.292 603.391 212.162 655.111 245.056 696.993C277.951 738.875 323.962 768.492 375.705 781.089C427.449 793.687 481.924 788.535 530.389 766.46C578.853 744.385 618.496 706.668 642.956 659.362C652.616 640.678 675.593 633.363 694.276 643.024C712.959 652.684 720.274 675.661 710.614 694.345C678.313 756.817 625.961 806.626 561.96 835.777C497.958 864.928 426.019 871.732 357.688 855.096C289.357 838.46 228.596 799.349 185.157 744.04C141.717 688.731 118.119 620.432 118.148 550.103V313.822C118.13 263.635 130.15 214.176 153.2 169.596Z" fill="white"/>
<path d="M669.593 484.866V313.818C669.603 272.305 658.735 231.515 638.074 195.509C617.413 159.503 587.68 129.539 551.835 108.602C515.99 87.6642 475.284 76.4839 433.774 76.1742C392.263 75.8647 351.396 86.4369 315.243 106.837C296.925 117.174 273.696 110.703 263.36 92.3847C253.024 74.0666 259.494 50.8376 277.812 40.5012C325.555 13.5608 379.524 -0.400138 434.342 0.00872917C489.16 0.417614 542.914 15.1819 590.25 42.8314C637.586 70.481 676.852 110.051 704.137 157.599C731.42 205.144 745.771 259.009 745.76 313.826V484.866C745.76 505.899 728.709 522.95 707.677 522.95C686.644 522.95 669.593 505.899 669.593 484.866Z" fill="white"/>
<path d="M11.1543 11.2122C26.0268 -3.66056 50.1399 -3.66056 65.0124 11.2122L852.655 798.87C867.527 813.743 867.528 837.857 852.655 852.73C837.783 867.602 813.67 867.602 798.797 852.73L11.1543 65.0713C-3.71811 50.1985 -3.71811 26.0849 11.1543 11.2122Z" fill="white"/>
</g>
<defs>
<clipPath id="clip0_39_203">
<rect width="864" height="864" fill="white"/>
</clipPath>
</defs>
</svg>
