<svg width="500" height="500" viewBox="0 0 500 500" fill="none" xmlns="http://www.w3.org/2000/svg">
<path d="M193.332 291.665V208.332C193.332 200.048 200.048 193.332 208.332 193.332C216.616 193.332 223.332 200.048 223.332 208.332V291.665C223.332 299.949 216.616 306.665 208.332 306.665C200.048 306.665 193.332 299.949 193.332 291.665Z" fill="white"/>
<path d="M276.668 291.665V208.332C276.668 200.048 283.384 193.332 291.668 193.332C299.952 193.332 306.668 200.048 306.668 208.332V291.665C306.668 299.949 299.952 306.665 291.668 306.665C283.384 306.665 276.668 299.949 276.668 291.665Z" fill="white"/>
<path d="M443.332 291.665V208.332C443.332 200.048 450.048 193.332 458.332 193.332C466.616 193.332 473.332 200.048 473.332 208.332V291.665C473.332 299.949 466.616 306.665 458.332 306.665C450.048 306.665 443.332 299.949 443.332 291.665Z" fill="white"/>
<path d="M110 291.665V208.332C110 200.048 116.716 193.332 125 193.332C133.284 193.332 140 200.048 140 208.332V291.665C140 299.949 133.284 306.665 125 306.665C116.716 306.665 110 299.949 110 291.665Z" fill="white"/>
<path d="M360.001 166.667C360.001 151.94 348.062 140 333.335 140H83.335C68.6074 140 56.668 151.939 56.668 166.667V333.333C56.668 348.061 68.6074 360 83.335 360H333.335C348.062 360 360.001 348.06 360.001 333.333V166.667ZM390.001 333.333C390.001 364.629 364.631 390 333.335 390H83.335C52.0388 390 26.668 364.629 26.668 333.333V166.667C26.668 135.371 52.0388 110 83.335 110H333.335C364.631 110 390.001 135.371 390.001 166.667V333.333Z" fill="white"/>
</svg>
