<svg width="500" height="500" viewBox="0 0 500 500" fill="none" xmlns="http://www.w3.org/2000/svg">
<path d="M443.334 291.665V208.332C443.334 200.048 450.05 193.332 458.334 193.332C466.618 193.332 473.334 200.048 473.334 208.332V291.665C473.334 299.949 466.618 306.665 458.334 306.665C450.05 306.665 443.334 299.949 443.334 291.665Z" fill="white"/>
<path d="M359.999 166.667C359.999 151.94 348.06 140 333.333 140H83.333C68.6054 140 56.666 151.939 56.666 166.667V333.333C56.666 348.061 68.6054 360 83.333 360H333.333C348.06 360 359.999 348.06 359.999 333.333V166.667ZM389.999 333.333C389.999 364.629 364.629 390 333.333 390H83.333C52.0369 390 26.666 364.629 26.666 333.333V166.667C26.666 135.371 52.0369 110 83.333 110H333.333C364.629 110 389.999 135.371 389.999 166.667V333.333Z" fill="white"/>
</svg>
