<svg width="500" height="500" viewBox="0 0 500 500" fill="none" xmlns="http://www.w3.org/2000/svg">
<path d="M216.304 138.116C220.566 131.013 229.78 128.71 236.884 132.972C243.987 137.234 246.29 146.448 242.028 153.552L193.158 235.001H249.999C255.403 235.001 260.39 237.908 263.053 242.611C265.715 247.313 265.641 253.084 262.861 257.718L200.361 361.885C196.099 368.989 186.886 371.292 179.782 367.03C172.678 362.767 170.375 353.554 174.637 346.45L223.506 265.001H166.666C161.262 265.001 156.276 262.094 153.613 257.392C150.951 252.689 151.023 246.917 153.804 242.283L216.304 138.116Z" fill="white"/>
<path d="M360 333.333V166.667C360 159.595 357.19 152.812 352.189 147.811C347.188 142.81 340.405 140 333.333 140H309.5C301.216 140 294.5 133.284 294.5 125C294.5 116.716 301.216 110 309.5 110H333.333C348.362 110 362.775 115.971 373.402 126.598C384.029 137.225 390 151.638 390 166.667V333.333C390 348.362 384.029 362.775 373.402 373.402C362.775 384.029 348.362 390 333.333 390H272.188C263.903 390 257.188 383.284 257.188 375C257.188 366.716 263.903 360 272.188 360H333.333C340.405 360 347.188 357.19 352.189 352.189C357.19 347.188 360 340.405 360 333.333Z" fill="white"/>
<path d="M443.334 291.665V208.332C443.334 200.048 450.05 193.332 458.334 193.332C466.618 193.332 473.334 200.048 473.334 208.332V291.665C473.334 299.949 466.618 306.665 458.334 306.665C450.05 306.665 443.334 299.949 443.334 291.665Z" fill="white"/>
<path d="M26.666 333.333V166.667C26.666 151.638 32.6366 137.225 43.2637 126.598C53.8907 115.971 68.3041 110 83.333 110H144.499C152.783 110 159.499 116.716 159.499 125C159.499 133.284 152.783 140 144.499 140H83.333C76.2606 140 69.4775 142.81 64.4766 147.811C59.4756 152.812 56.666 159.595 56.666 166.667V333.333C56.666 340.405 59.4756 347.188 64.4766 352.189C69.4775 357.19 76.2606 360 83.333 360H107.083C115.367 360 122.083 366.716 122.083 375C122.083 383.284 115.367 390 107.083 390H83.333C68.3041 390 53.8907 384.029 43.2637 373.402C32.6366 362.775 26.666 348.362 26.666 333.333Z" fill="white"/>
</svg>
