<svg width="500" height="500" viewBox="0 0 500 500" fill="none" xmlns="http://www.w3.org/2000/svg">
<path d="M443.332 291.665V208.332C443.332 200.048 450.048 193.332 458.332 193.332C466.616 193.332 473.332 200.048 473.332 208.332V291.665C473.332 299.949 466.616 306.665 458.332 306.665C450.048 306.665 443.332 299.949 443.332 291.665Z" fill="white"/>
<path d="M110 291.665V208.332C110 200.048 116.716 193.332 125 193.332C133.284 193.332 140 200.048 140 208.332V291.665C140 299.949 133.284 306.665 125 306.665C116.716 306.665 110 299.949 110 291.665Z" fill="white"/>
<path d="M359.999 166.667C359.999 151.94 348.06 140 333.333 140H83.333C68.6054 140 56.666 151.939 56.666 166.667V333.333C56.666 348.061 68.6054 360 83.333 360H333.333C348.06 360 359.999 348.06 359.999 333.333V166.667ZM389.999 333.333C389.999 364.629 364.629 390 333.333 390H83.333C52.0369 390 26.666 364.629 26.666 333.333V166.667C26.666 135.371 52.0369 110 83.333 110H333.333C364.629 110 389.999 135.371 389.999 166.667V333.333Z" fill="white"/>
</svg>
