<svg width="500" height="500" viewBox="0 0 500 500" fill="none" xmlns="http://www.w3.org/2000/svg">
<path d="M208.54 339.168C216.824 339.168 223.54 345.884 223.54 354.168C223.54 362.452 216.824 369.168 208.54 369.168H208.332C200.048 369.168 193.332 362.452 193.332 354.168C193.332 345.884 200.048 339.168 208.332 339.168H208.54Z" fill="white"/>
<path d="M193.332 270.832V145.832C193.332 137.548 200.048 130.832 208.332 130.832C216.616 130.832 223.332 137.548 223.332 145.832V270.832C223.332 279.116 216.616 285.832 208.332 285.832C200.048 285.832 193.332 279.116 193.332 270.832Z" fill="white"/>
<path d="M360.001 333.333V166.667C360.001 159.595 357.191 152.812 352.19 147.811C347.19 142.81 340.407 140 333.335 140H291.668C283.384 140 276.668 133.284 276.668 125C276.668 116.716 283.384 110 291.668 110H333.335C348.364 110 362.777 115.971 373.404 126.598C384.031 137.225 390.001 151.638 390.001 166.667V333.333C390.001 348.362 384.031 362.775 373.404 373.402C362.777 384.029 348.364 390 333.335 390H291.668C283.384 390 276.668 383.284 276.668 375C276.668 366.716 283.384 360 291.668 360H333.335C340.407 360 347.19 357.19 352.19 352.189C357.191 347.188 360.001 340.405 360.001 333.333Z" fill="white"/>
<path d="M443.332 291.665V208.332C443.332 200.048 450.048 193.332 458.332 193.332C466.616 193.332 473.332 200.048 473.332 208.332V291.665C473.332 299.949 466.616 306.665 458.332 306.665C450.048 306.665 443.332 299.949 443.332 291.665Z" fill="white"/>
<path d="M26.668 333.333V166.667C26.668 151.638 32.6386 137.225 43.2656 126.598C53.8927 115.971 68.306 110 83.335 110H125.001C133.285 110 140.001 116.716 140.001 125C140.001 133.284 133.285 140 125.001 140H83.335C76.2625 140 69.4795 142.81 64.4785 147.811C59.4775 152.812 56.668 159.595 56.668 166.667V333.333C56.668 340.405 59.4775 347.188 64.4785 352.189C69.4795 357.19 76.2625 360 83.335 360H125.001C133.285 360 140.001 366.716 140.001 375C140.001 383.284 133.285 390 125.001 390H83.335C68.306 390 53.8927 384.029 43.2656 373.402C32.6386 362.775 26.668 348.362 26.668 333.333Z" fill="white"/>
</svg>
